<svg width="60" height="60" viewBox="0 0 60 60" version="1.1" xmlns="http://www.w3.org/2000/svg" xmlns:xlink="http://www.w3.org/1999/xlink">
<title>circle arrow</title>
<desc>Created using Figma</desc>
<g id="Canvas" transform="translate(5452 6202)">
<g id="circle arrow">
<g id="Group">
<g id="Group">
<g id="Vector">
<use xlink:href="#path0_fill" transform="matrix(-1.22465e-16 1 -1 -1.22465e-16 -5392 -6202)" fill="#233E99"/>
</g>
</g>
</g>
</g>
</g>
<defs>
<path id="path0_fill" fill-rule="evenodd" d="M 30 60C 13.4315 60 0 46.5685 0 30C 0 13.4315 13.4315 0 30 0C 46.5685 0 60 13.4315 60 30C 60 46.5685 46.5685 60 30 60ZM 30.6833 15.2922C 30.2959 14.9025 29.6687 14.9027 29.2827 15.2922L 17.3107 27.3728C 16.3687 28.3157 17.7812 29.7296 18.7232 28.7867L 28.2946 19.202C 28.6848 18.8113 29.0011 18.9478 29.0011 19.4862L 29.0011 43.6107C 29.0011 44.1583 29.4445 44.6022 30 44.6022C 30.5517 44.6022 30.9989 44.1491 30.9989 43.6107L 30.9989 19.4862C 30.9989 18.9385 31.3178 18.8139 31.7054 19.202L 41.2768 28.7867C 42.2188 29.7296 43.6313 28.3157 42.6893 27.3728L 30.6833 15.2922Z"/>
</defs>
</svg>
