<?xml version="1.0" encoding="utf-8"?>
<!-- Generator: Adobe Illustrator 21.1.0, SVG Export Plug-In . SVG Version: 6.00 Build 0)  -->
<svg version="1.1" id="Layer_1" xmlns="http://www.w3.org/2000/svg" xmlns:xlink="http://www.w3.org/1999/xlink" x="0px" y="0px"
	 viewBox="0 0 144.9 29" style="enable-background:new 0 0 144.9 29;" xml:space="preserve">
<style type="text/css">
	.st0{fill:#21409A;}
	.st1{fill:#808285;}
</style>
<title>Logo Inteligo SOLO</title>
<g>
	<rect x="43.4" y="7.1" class="st0" width="2.1" height="14.4"/>
	<polygon class="st0" points="61.3,21.5 52.4,10.6 52.4,10.6 52.4,21.5 50.2,21.5 50.2,7.1 52.4,7.1 61.2,18.1 61.3,18.1 61.3,7.1 
		63.4,7.1 63.4,21.5 	"/>
	<polygon class="st0" points="72.9,9.2 72.9,21.5 70.7,21.5 70.7,9.2 65.5,9.2 65.5,7.1 78.1,7.1 78.1,9.2 	"/>
	<polygon class="st0" points="80.2,21.5 80.2,7.1 91.3,7.1 91.3,9.2 82.3,9.2 82.3,13.1 89.6,13.1 89.6,15.1 82.3,15.1 82.3,19.5 
		91.3,19.5 91.3,21.5 	"/>
	<polygon class="st0" points="94.7,21.5 94.7,7.1 96.8,7.1 96.8,19.5 104.4,19.5 104.4,21.5 	"/>
	<rect x="106.8" y="7.1" class="st0" width="2.1" height="14.4"/>
	<path class="st0" d="M120.2,21.8c-3.9,0-8-2.6-8-7.5c0-4.1,3.3-7.5,8-7.5c2.3,0,4.6,0.9,6.2,2.6l-1.5,1.5c-1.1-1.3-2.8-2-4.5-2
		c-3.9,0-6.1,2.5-6.1,5.5c0,2.8,2.3,5.4,6,5.4c2.5,0,4.3-1.2,4.3-2.4v-1.6H120v-2.1h6.7v3.8C126.7,20.1,123.8,21.8,120.2,21.8"/>
	<path class="st0" d="M137.1,8.9c-3,0.1-5.3,2.7-5.2,5.7s2.7,5.3,5.7,5.2c2.9-0.1,5.2-2.5,5.2-5.4c0-3-2.5-5.5-5.6-5.4
		C137.2,8.9,137.1,8.9,137.1,8.9 M137.1,21.9c-4.1-0.2-7.4-3.7-7.2-7.8c0.2-4.1,3.7-7.4,7.8-7.2c4,0.2,7.2,3.5,7.2,7.5
		c0,4.1-3.3,7.5-7.5,7.5C137.3,21.9,137.2,21.9,137.1,21.9"/>
	<rect x="0" y="0" class="st0" width="28.9" height="28.9"/>
	<path class="st1" d="M14.1,3.3c0,0-12.5,10.4-3.3,25.6h6.4C4,12.5,14.1,3.3,14.1,3.3 M18.6,0.1c0,0-16.1,9.7,2.1,29H29
		C6.9,11.5,18.6,0.1,18.6,0.1 M11.5,5.4c0,0-12.8,10.1-8.5,23.6h5C0.7,14.6,11.5,5.4,11.5,5.4"/>
</g>
</svg>
