<svg width="150" height="156" viewBox="0 0 150 156" version="1.1" xmlns="http://www.w3.org/2000/svg" xmlns:xlink="http://www.w3.org/1999/xlink">
<title>Vector</title>
<desc>Created using Figma</desc>
<g id="Canvas" transform="translate(1792 8154)">
<g id="Vector">
<use xlink:href="#path0_fill" transform="translate(-1792 -8154)" fill="#4D4D4F" fill-opacity="0.64"/>
</g>
</g>
<defs>
<path id="path0_fill" d="M 121.635 98.0318C 105.929 98.0318 93.2692 110.968 93.2692 127.016C 93.2692 143.064 105.929 156 121.635 156C 137.34 156 150 143.064 150 127.016C 150 110.968 137.179 98.0318 121.635 98.0318ZM 135.417 130.946L 125.481 130.946L 125.481 141.099L 117.788 141.099L 117.788 130.946L 107.853 130.946L 107.853 123.086L 117.788 123.086L 117.788 112.933L 125.481 112.933L 125.481 123.086L 135.417 123.086L 135.417 130.946ZM 55.609 135.367L 7.64162e-08 135.367L 7.64162e-08 116.863C 7.64162e-08 112.933 1.60256 109.331 4.64744 106.874C 17.3077 96.2305 30.7692 88.3704 37.8205 84.6041C 38.6218 86.4054 45.9936 103.599 50.641 110.968C 50.8013 111.296 51.2821 111.132 51.2821 110.804C 52.2436 107.857 55.9295 97.7043 61.5385 98.5231C 61.859 98.5231 62.1795 98.0318 61.859 97.868C 57.6923 94.4293 46.9551 85.5866 42.9487 80.6741L 42.9487 68.8839C 41.0256 65.4452 39.7436 62.0064 39.2628 58.7313C 37.8205 58.5676 36.0577 56.6025 34.1346 49.5612C 31.5705 40.3911 33.9744 38.5898 36.2179 38.5898C 34.9359 33.0223 31.7308 14.3545 45.3526 5.83944C 45.3526 5.83944 42.6282 3.54691 42.7885 0.108121C 42.7885 0.108121 58.1731 1.90939 65.7051 0.271873C 73.2372 -1.36565 81.25 4.69318 82.5321 10.4245C 82.5321 10.4245 97.7564 10.5882 91.8269 38.0986C 94.2308 37.9348 96.7949 39.7361 94.2308 49.07C 92.3077 56.275 90.3846 58.2401 89.1026 58.2401C 88.6218 61.5151 87.3397 65.1177 85.4167 68.3927L 85.4167 80.1828C 81.4103 85.0954 70.6731 93.938 66.5064 97.3768C 66.1859 97.7043 66.5064 98.0318 66.8269 98.0318C 72.4359 97.3768 76.1218 107.529 77.0833 110.313C 77.2436 110.641 77.5641 110.641 77.7244 110.477C 82.3718 103.108 89.7436 85.9142 90.5449 84.1129C 94.391 86.2417 100 89.3529 106.25 93.6105C 94.0705 99.8331 85.7372 112.442 85.7372 127.016C 85.7372 129.8 86.0577 132.583 86.6987 135.367L 72.5962 135.367L 55.609 135.367Z"/>
</defs>
</svg>
